<svg width="104" height="24" viewBox="0 0 104 24" fill="none" xmlns="http://www.w3.org/2000/svg">
<path fill-rule="evenodd" clip-rule="evenodd" d="M10.2018 0H18.285L25.6408 16.9344L22.8189 23.42H14.7357L17.5576 16.9344L14.0387 8.83274L7.70249 23.42H0L6.46345 8.53865H13.9106L10.2018 0ZM55.6225 20.3635V21.2097H61.6033V20.3635C60.7037 20.3178 60.1281 20.1843 59.8765 19.9633C59.5945 19.7193 59.4534 19.2276 59.4534 18.4881V2.93574C58.3327 3.24069 57.0786 3.39697 55.6911 3.4046V4.25083C56.5374 4.28132 57.0901 4.39186 57.3493 4.58246C57.6466 4.79592 57.7953 5.23809 57.7953 5.90898V18.4881C57.7953 19.1666 57.6771 19.6316 57.4408 19.8832C57.1739 20.1653 56.5679 20.3254 55.6225 20.3635ZM61.6619 24V23.1538C62.6301 23.1385 63.2438 22.9937 63.503 22.7192C63.747 22.4676 63.869 21.995 63.869 21.3012V11.0664C63.869 10.4184 63.7279 9.99147 63.4459 9.78563C63.179 9.58741 62.6225 9.46162 61.7763 9.40825V8.56202C63.3315 8.53915 64.5704 8.38287 65.4928 8.09317V10.2774C65.8206 9.67508 66.3047 9.18335 66.9451 8.80217C67.738 8.3295 68.5995 8.09317 69.5296 8.09317C71.2373 8.09317 72.6286 8.68019 73.7035 9.85424C74.7175 10.9521 75.2245 12.3891 75.2245 14.1654C75.2245 16.3153 74.6717 17.9354 73.5663 19.0255C72.5752 20.0166 71.1801 20.5122 69.3809 20.5122C68.306 20.5122 67.3721 20.2339 66.5792 19.6774C66.1446 19.3648 65.7825 18.9722 65.4928 18.4995V21.3012C65.4928 22.0331 65.6339 22.5172 65.9159 22.7535C66.2056 22.9975 66.8765 23.1309 67.9286 23.1538V24H61.6619ZM69.2322 9.25959C68.2717 9.25959 67.4102 9.69414 66.6478 10.5632C65.8626 11.4476 65.4699 12.6293 65.4699 14.1083C65.4699 15.4348 65.6339 16.4678 65.9617 17.2073C66.5792 18.6329 67.7075 19.3457 69.3466 19.3457C70.879 19.3457 71.9958 18.671 72.6972 17.3216C73.1394 16.4678 73.3605 15.4043 73.3605 14.1311C73.3605 12.9266 73.086 11.9012 72.5371 11.055C71.9882 10.224 71.2335 9.67508 70.2729 9.40825C69.9298 9.30914 69.5829 9.25959 69.2322 9.25959ZM78.6766 14.9431V14.7601H88.7398V14.2912C88.7398 13.7347 88.6788 13.1934 88.5569 12.6674C88.2214 11.2113 87.4972 10.0639 86.3841 9.22528C85.393 8.47054 84.2304 8.09317 82.8963 8.09317C80.9903 8.09317 79.4542 8.84791 78.2878 10.3574C77.3272 11.6153 76.8469 13.14 76.8469 14.9316C76.8469 16.6698 77.2776 18.1298 78.1391 19.3114C79.2903 20.8895 80.9179 21.6786 83.0221 21.6786C85.4159 21.6786 87.2761 20.5274 88.6026 18.2251L87.8593 17.4817C86.609 19.4029 85.0462 20.3635 83.1707 20.3635C81.4783 20.3635 80.2242 19.6164 79.4084 18.1221C78.9205 17.2302 78.6766 16.1705 78.6766 14.9431ZM85.9153 10.689C86.426 11.3599 86.7119 12.3434 86.7729 13.6394H78.7223C78.8748 12.4654 79.2788 11.4819 79.9345 10.689C80.7578 9.69033 81.7527 9.19098 82.9191 9.19098C84.1618 9.19098 85.1605 9.69033 85.9153 10.689ZM89.2887 20.3635V21.2097H95.0408V20.3635C94.2632 20.3101 93.741 20.1615 93.4741 19.9175C93.2073 19.6812 93.0739 19.2047 93.0739 18.4881V12.0727C94.2708 10.3269 95.5859 9.454 97.0192 9.454C97.9264 9.454 98.6506 9.78563 99.1919 10.4489C99.7561 11.135 100.038 12.0461 100.038 13.182V18.4881C100.038 19.2199 99.9123 19.6964 99.6608 19.9175C99.3787 20.1691 98.8412 20.3178 98.0484 20.3635V21.2097H103.846V20.3635C102.954 20.3178 102.375 20.1805 102.108 19.9518C101.818 19.7079 101.673 19.2199 101.673 18.4881V13.2506C101.673 11.7259 101.327 10.5327 100.633 9.67127C99.7789 8.6192 98.6239 8.09317 97.1678 8.09317C96.4512 8.09317 95.7384 8.27613 95.0294 8.64207C94.2289 9.06138 93.5771 9.62172 93.0739 10.3231V8.09317C91.9532 8.40574 90.7144 8.56202 89.3573 8.56202V9.40825C90.2264 9.46924 90.7715 9.57597 90.9926 9.72845C91.29 9.94191 91.4386 10.3879 91.4386 11.0664V18.4881C91.4386 19.1818 91.2976 19.6583 91.0155 19.9175C90.7411 20.1767 90.1655 20.3254 89.2887 20.3635ZM44.4271 3.06153H45.3305L51.7802 17.9506C52.169 18.8502 52.5997 19.4791 53.0724 19.8375C53.4536 20.1195 53.9758 20.2949 54.6391 20.3635V21.2097H48.2352V20.3635C49.6913 20.2415 50.4193 19.948 50.4193 19.483C50.4193 19.3305 50.3164 19.0217 50.1106 18.5567L48.4296 14.7601H40.8135L39.2926 18.2822C39.0867 18.7549 38.9838 19.117 38.9838 19.3686C38.9838 19.9556 39.6661 20.2873 41.0308 20.3635V21.2097H35.3359V20.3635C36.5252 20.1958 37.3523 19.563 37.8174 18.4652L44.4271 3.06153ZM44.633 5.4973L41.2137 13.5937H48.0751L44.633 5.4973Z" fill="white"/>
</svg>
